<svg width="2209" height="4225" viewBox="0 0 2209 4225" fill="none" xmlns="http://www.w3.org/2000/svg">
<g opacity="0.03">
<path d="M695.034 1470.35C648.727 1489.74 631.139 1537.27 661.406 1564.4C723.675 1620.24 980.029 1592.66 992.091 1554.81C1003.97 1517.52 791.662 1429.88 695.034 1470.35Z" stroke="#2E2D2B" stroke-width="2" stroke-miterlimit="10"/>
<path d="M809.777 1346.16C915.551 1309.11 1093.16 1572.91 1019.85 1635.19C974.772 1673.48 865.657 1668.7 776.674 1656.11C693.14 1644.3 573.78 1596 544.332 1515.77C528.739 1473.19 538.099 1412.51 571.123 1391.26C596.681 1374.82 631.184 1382.22 638.795 1379.48C675.081 1394.53 680.406 1400.38 709.316 1403.92C747.103 1408.53 780.687 1356.35 809.777 1346.16Z" stroke="#2E2D2B" stroke-width="2" stroke-miterlimit="10"/>
<path d="M917.098 1216.42C1039.94 1236.03 1173.44 1621.33 1040.18 1710.01C955.311 1766.48 807.355 1741.54 704.226 1711.69C609.494 1684.26 451.751 1592.75 419.837 1461.59C401.285 1385.38 423.828 1278.17 488.418 1247.16C539.904 1222.45 606.243 1243.7 617.923 1245.33C686.963 1282.47 692.546 1301.37 743.953 1314.09C812.018 1330.91 865.758 1208.18 917.098 1216.42Z" stroke="#2E2D2B" stroke-width="2" stroke-miterlimit="10"/>
<path d="M1016.64 1087.54C1152.28 1123.69 1245.94 1670.31 1052.73 1785.68C928.038 1860.13 741.196 1815.47 623.999 1768.12C517.978 1725.29 322.515 1590.54 287.563 1408.25C266.478 1298.32 301.665 1144.82 397.922 1103.91C475.269 1071.03 574.049 1104.77 589.249 1112.04C695.516 1162.84 696.862 1203.21 770.845 1225.12C869.12 1254.3 945.604 1068.64 1016.64 1087.54Z" stroke="#2E2D2B" stroke-width="2" stroke-miterlimit="10"/>
<path d="M1110.2 964.515C1260.41 1016.67 1312.22 1724.6 1059.3 1867.22C894.611 1959.27 668.961 1895.37 537.797 1830.43C420.364 1772.3 187.427 1594.31 149.258 1360.78C125.797 1217.23 173.471 1017.37 301.407 966.499C404.659 925.48 535.095 973.593 554.566 984.565C691.548 1061.76 695.091 1111.07 791.628 1142.01C920.136 1183.56 1020.28 933.303 1110.2 964.515Z" stroke="#2E2D2B" stroke-width="2" stroke-miterlimit="10"/>
<path d="M200.688 830.724C329.801 781.58 491.814 843.993 515.68 858.742C683.007 962.162 689.194 1020.2 808.252 1060.47C967.014 1114.16 1091.42 798.671 1199.47 843.052C1365.44 911.225 1374.75 1781.36 1061.59 1950.32C857.249 2060.57 592.354 1976.92 447.301 1894.29C318.479 1820.91 48.237 1599.7 6.76121 1314.87C-19.021 1137.71 41.0516 891.478 200.688 830.724Z" stroke="#2E2D2B" stroke-width="2" stroke-miterlimit="10"/>
<path d="M1597.82 741.066C1546.96 740.64 1485.97 652.451 1531.58 637.725C1557.92 629.207 1627.67 642.678 1655.06 666.65C1693.65 700.384 1632.81 741.369 1597.82 741.066Z" stroke="#2E2D2B" stroke-width="2" stroke-miterlimit="10"/>
<path d="M1459.6 650.075C1464.58 638.24 1487.88 632.984 1509.15 618.572C1552.28 589.321 1558.47 575.424 1589.11 557.784C1601.06 550.891 1617.13 541.836 1632.82 545.983C1656.86 552.337 1662.85 579.84 1693.36 628.277C1732.9 691.217 1747.88 707.489 1736.58 740.842C1733.95 748.597 1730.54 773.713 1711.49 789.033C1685.12 810.214 1654.2 793.852 1615.55 807.872C1569.13 824.683 1546.12 854.606 1525.97 841.382C1511.78 832.068 1511.25 806.561 1500.63 762.147C1492.53 728.312 1487.45 706.111 1477.6 688C1465.8 666.437 1454.06 663.232 1459.6 650.075Z" stroke="#2E2D2B" stroke-width="2" stroke-miterlimit="10"/>
<path d="M1381.86 674.742C1382.72 653.762 1415.68 643.608 1442.84 613.293C1498.54 551.104 1472.74 506.668 1517.39 461.234C1536.33 441.946 1566.06 423.264 1595.85 426.884C1638.14 432.028 1652.34 475.702 1717.43 564.25C1802.54 680.021 1838.79 702.693 1830.84 764.388C1829.22 776.963 1827.64 825.243 1794.38 854.304C1750.02 893.058 1696.85 857.8 1627.41 886.928C1549.82 919.429 1520.82 988.913 1494.65 974.534C1476.48 964.549 1483.44 924.337 1469.48 845.909C1459.59 790.165 1453.48 757.585 1433.72 730.901C1408.78 697.246 1380.93 697.526 1381.86 674.742Z" stroke="#2E2D2B" stroke-width="2" stroke-miterlimit="10"/>
<path d="M1304.04 699.14C1300.68 669.071 1343.36 653.953 1376.46 607.734C1444.61 512.585 1385.85 438.214 1445.59 364.404C1471.16 332.822 1515.01 304.568 1558.81 307.516C1619.51 311.595 1641.94 371.106 1741.52 499.955C1872.45 668.309 1928.84 697.952 1925.14 787.666C1924.41 805.16 1924.75 876.483 1877.3 919.339C1814.95 975.633 1739.42 921.412 1639.31 965.737C1530.47 1013.93 1495.58 1122.94 1463.32 1107.45C1441.18 1096.74 1455.36 1041.87 1438.31 929.425C1426.54 851.771 1419.45 808.97 1389.81 773.556C1351.61 727.92 1307.64 731.529 1304.04 699.14Z" stroke="#2E2D2B" stroke-width="2" stroke-miterlimit="10"/>
<path d="M1226.05 723.471C1218.5 684.347 1270.77 664.207 1309.9 602.119C1390.36 473.954 1298.52 369.94 1373.62 267.518C1405.73 223.697 1463.82 185.862 1521.59 188.081C1600.75 191.129 1631.05 266.677 1765.39 435.603C1941.73 656.833 2018.47 693.368 2019.15 810.887C2019.29 833.301 2021.51 927.599 1959.92 984.307C1879.5 1058.07 1781.76 984.923 1650.93 1044.49C1510.81 1108.3 1470.04 1256.94 1431.81 1240.31C1405.69 1228.9 1427.1 1159.33 1406.97 1012.89C1393.28 913.309 1385.25 860.344 1345.73 816.154C1294.24 758.594 1234.16 765.543 1226.05 723.471Z" stroke="#2E2D2B" stroke-width="2" stroke-miterlimit="10"/>
<path d="M1147.9 747.79C1160.54 799.568 1236.7 789.257 1301.48 858.742C1350.88 911.718 1359.86 974.826 1375.46 1096.33C1398.63 1276.77 1370.02 1361.06 1400.12 1373.15C1444.37 1390.94 1491.01 1202.66 1662.43 1123.23C1823.91 1048.41 1944.08 1140.65 2042.44 1049.26C2118.26 978.804 2114.04 861.532 2113.06 834.086C2107.83 688.796 2010.86 645.334 1789.1 371.229C1620 162.226 1581.86 70.6633 1484.19 68.6348C1412.45 67.1442 1340.09 114.584 1301.48 170.62C1211.05 301.744 1336.15 435.457 1243.19 596.493C1198.14 674.529 1136.15 699.622 1147.9 747.79Z" stroke="#2E2D2B" stroke-width="2" stroke-miterlimit="10"/>
<path d="M1794.2 1581.16C1780.93 1574.43 1753.06 1587.39 1750.59 1607.57C1747.8 1630.47 1779.33 1649.41 1793.19 1643.52C1809.58 1636.55 1811.81 1590.06 1794.2 1581.16Z" stroke="#2E2D2B" stroke-width="2" stroke-miterlimit="10"/>
<path d="M1831.59 1702.81C1854.21 1681.66 1864.1 1642.85 1875.41 1576.33C1886.62 1510.36 1884.86 1463.13 1875.01 1459.7C1869.64 1457.86 1854.43 1472.32 1841.38 1482.93C1816.95 1502.72 1775.14 1500.52 1764.42 1502.66C1725.19 1510.51 1713.67 1525.08 1697.27 1552.98C1689.68 1565.87 1671.98 1594.45 1664.19 1628.07C1652.31 1678.98 1599.05 1694.67 1605.54 1715.08C1611 1732.12 1663.76 1736.25 1697.97 1736.74C1747.01 1737.43 1796.62 1735.47 1831.59 1702.81Z" stroke="#2E2D2B" stroke-width="2" stroke-miterlimit="10"/>
<path d="M1870.8 1759.66C1907.99 1721.87 1922.62 1658.45 1945.15 1539.85C1968.04 1420.67 1967.89 1338.92 1956.61 1335.88C1948.15 1333.55 1920.74 1363.01 1897.45 1384.07C1853.54 1423.93 1774.94 1417.37 1758.74 1419.93C1684.87 1431.34 1666.67 1458.67 1638.04 1510.34C1626.11 1531.86 1593.39 1584.31 1578.48 1646.25C1555.53 1741.14 1446.74 1765.99 1455.74 1801.17C1463.27 1830.46 1564.15 1834.95 1627.63 1832.55C1717.27 1829.06 1807.97 1823.55 1870.8 1759.66Z" stroke="#2E2D2B" stroke-width="2" stroke-miterlimit="10"/>
<path d="M1909.8 1816.15C1961.58 1761.73 1980.78 1673.65 2014.66 1503C2049.06 1330.58 2050.66 1214.5 2038 1211.61C2026.39 1208.92 1986.81 1253.3 1953.34 1284.87C1890.06 1344.91 1774.57 1333.87 1752.88 1336.76C1644.39 1351.24 1619.41 1391.73 1578.62 1467.27C1562.35 1497.41 1514.63 1573.74 1492.58 1663.97C1458.6 1802.85 1294.27 1836.83 1305.76 1886.79C1315.35 1928.34 1464.39 1933.38 1557.11 1927.87C1687.32 1920.53 1819.26 1911.32 1909.8 1816.15Z" stroke="#2E2D2B" stroke-width="2" stroke-miterlimit="10"/>
<path d="M1948.68 1872.6C2015.08 1801.55 2038.84 1688.8 2084.06 1466.1C2130.02 1240.46 2133.38 1090.09 2119.28 1087.3C2104.53 1084.35 2052.75 1143.47 2009.12 1185.58C1926.35 1265.65 1774.1 1250.24 1746.92 1253.55C1603.81 1270.91 1571.85 1324.66 1519.1 1424.14C1498.41 1462.88 1435.76 1563.11 1406.59 1681.64C1361.55 1864.5 1141.67 1907.62 1155.68 1972.37C1167.33 2026.16 1364.51 2031.53 1486.49 2023.17C1657.23 2011.66 1830.47 1999.1 1948.68 1872.6Z" stroke="#2E2D2B" stroke-width="2" stroke-miterlimit="10"/>
<path d="M1740.9 1170.3C1563.19 1190.47 1524.55 1257.72 1459.53 1381C1434.54 1428.39 1356.83 1552.47 1320.53 1699.28C1264.49 1926.14 989.03 1978.4 1005.54 2057.91C1019.26 2124.03 1264.57 2129.64 1415.82 2118.43C1627.14 2102.74 1841.66 2086.85 1987.51 1929.03C2068.54 1841.33 2096.84 1703.95 2153.41 1429.19C2210.84 1150.31 2215.96 965.681 2200.49 962.968C2182.56 959.83 2118.66 1033.57 2064.85 1086.25C1962.58 1186.35 1773.58 1166.59 1740.9 1170.3Z" stroke="#2E2D2B" stroke-width="2" stroke-miterlimit="10"/>
<path d="M295.971 631.236C316.148 708.565 460.977 672.243 633.381 846.414C695.158 908.826 736.578 974.108 818.341 984.262C826.591 985.282 908.5 994.236 966.308 941.675C1039.04 875.552 994.646 783.821 1079.53 655.891C1110.79 608.765 1115.99 622.449 1138.94 585.286C1236.86 426.648 1087.51 265.601 1173.69 104.498C1213.36 30.3398 1272.33 13.3161 1266.73 3.63307C1242.54 -37.912 241.447 422.86 295.971 631.236Z" stroke="#2E2D2B" stroke-width="2" stroke-miterlimit="10"/>
<path d="M840.76 878.545C845.715 877.872 899.723 881.907 936.771 844.744C983.616 797.819 950.222 733.21 1003.89 645.984C1023.65 613.865 1026.39 622.573 1040.45 597.166C1100.42 488.747 992.786 379.679 1045.49 273.547C1069.89 224.415 1108.39 213.151 1102.66 208.355C1076.76 186.478 415.981 509.66 467.882 650.288C487.342 703.029 593.576 684.313 715.133 797.909C759.333 839.185 789.263 885.527 840.76 878.545Z" stroke="#2E2D2B" stroke-width="2" stroke-miterlimit="10"/>
<path d="M863.179 772.816C864.592 769.263 891.002 769.342 907.233 747.813C928.308 719.884 905.866 682.677 928.263 636.088C936.479 618.986 936.816 622.64 941.972 609.045C964.111 550.578 897.974 493.824 917.311 442.585C926.357 418.467 943.171 414.354 938.688 413.065C905.911 417.716 591.188 596.773 639.737 669.34C658.693 697.694 726.545 696.338 796.829 749.404C823.542 769.577 841.029 784.348 863.179 772.816Z" stroke="#2E2D2B" stroke-width="2" stroke-miterlimit="10"/>
<path d="M885.599 667.099C868.201 616.274 799.71 598.993 774.623 617.787C737.631 645.536 769.186 681.668 811.615 688.392C843.327 693.379 905.507 725.264 885.599 667.099Z" stroke="#2E2D2B" stroke-width="2" stroke-miterlimit="10"/>
</g>
<g opacity="0.03">
<path d="M695.034 2754.65C648.727 2735.26 631.139 2687.73 661.406 2660.6C723.675 2604.76 980.029 2632.34 992.091 2670.19C1003.97 2707.48 791.662 2795.12 695.034 2754.65Z" stroke="#2E2D2B" stroke-width="2" stroke-miterlimit="10"/>
<path d="M809.777 2878.84C915.551 2915.89 1093.16 2652.09 1019.85 2589.81C974.772 2551.52 865.657 2556.3 776.674 2568.89C693.14 2580.7 573.78 2629 544.332 2709.23C528.739 2751.81 538.099 2812.49 571.123 2833.74C596.681 2850.18 631.184 2842.78 638.795 2845.52C675.081 2830.47 680.406 2824.62 709.316 2821.08C747.103 2816.47 780.687 2868.65 809.777 2878.84Z" stroke="#2E2D2B" stroke-width="2" stroke-miterlimit="10"/>
<path d="M917.098 3008.58C1039.94 2988.97 1173.44 2603.67 1040.18 2514.99C955.311 2458.52 807.355 2483.46 704.226 2513.31C609.494 2540.74 451.751 2632.25 419.837 2763.41C401.285 2839.62 423.828 2946.83 488.418 2977.84C539.904 3002.55 606.243 2981.3 617.923 2979.67C686.963 2942.53 692.546 2923.63 743.953 2910.91C812.018 2894.09 865.758 3016.82 917.098 3008.58Z" stroke="#2E2D2B" stroke-width="2" stroke-miterlimit="10"/>
<path d="M1016.64 3137.46C1152.28 3101.31 1245.94 2554.69 1052.73 2439.32C928.038 2364.87 741.196 2409.53 623.999 2456.88C517.978 2499.71 322.515 2634.46 287.563 2816.75C266.478 2926.68 301.665 3080.18 397.922 3121.09C475.269 3153.97 574.049 3120.23 589.249 3112.96C695.516 3062.16 696.862 3021.79 770.845 2999.88C869.12 2970.7 945.604 3156.36 1016.64 3137.46Z" stroke="#2E2D2B" stroke-width="2" stroke-miterlimit="10"/>
<path d="M1110.2 3260.48C1260.41 3208.33 1312.22 2500.4 1059.3 2357.78C894.611 2265.73 668.961 2329.63 537.797 2394.57C420.364 2452.7 187.427 2630.69 149.258 2864.22C125.797 3007.77 173.471 3207.63 301.407 3258.5C404.659 3299.52 535.095 3251.41 554.566 3240.44C691.548 3163.24 695.091 3113.93 791.628 3082.99C920.136 3041.44 1020.28 3291.7 1110.2 3260.48Z" stroke="#2E2D2B" stroke-width="2" stroke-miterlimit="10"/>
<path d="M200.688 3394.28C329.801 3443.42 491.814 3381.01 515.68 3366.26C683.007 3262.84 689.194 3204.8 808.252 3164.53C967.014 3110.84 1091.42 3426.33 1199.47 3381.95C1365.44 3313.78 1374.75 2443.64 1061.59 2274.68C857.249 2164.43 592.354 2248.08 447.301 2330.71C318.479 2404.09 48.237 2625.3 6.76121 2910.13C-19.021 3087.29 41.0516 3333.52 200.688 3394.28Z" stroke="#2E2D2B" stroke-width="2" stroke-miterlimit="10"/>
<path d="M1597.82 3483.93C1546.96 3484.36 1485.97 3572.55 1531.58 3587.28C1557.92 3595.79 1627.67 3582.32 1655.06 3558.35C1693.65 3524.62 1632.81 3483.63 1597.82 3483.93Z" stroke="#2E2D2B" stroke-width="2" stroke-miterlimit="10"/>
<path d="M1459.6 3574.93C1464.58 3586.76 1487.88 3592.02 1509.15 3606.43C1552.28 3635.68 1558.47 3649.58 1589.11 3667.22C1601.06 3674.11 1617.13 3683.16 1632.82 3679.02C1656.86 3672.66 1662.85 3645.16 1693.36 3596.72C1732.9 3533.78 1747.88 3517.51 1736.58 3484.16C1733.95 3476.4 1730.54 3451.29 1711.49 3435.97C1685.12 3414.79 1654.2 3431.15 1615.55 3417.13C1569.13 3400.32 1546.12 3370.39 1525.97 3383.62C1511.78 3392.93 1511.25 3418.44 1500.63 3462.85C1492.53 3496.69 1487.45 3518.89 1477.6 3537C1465.8 3558.56 1454.06 3561.77 1459.6 3574.93Z" stroke="#2E2D2B" stroke-width="2" stroke-miterlimit="10"/>
<path d="M1381.86 3550.26C1382.72 3571.24 1415.68 3581.39 1442.84 3611.71C1498.54 3673.9 1472.74 3718.33 1517.39 3763.77C1536.33 3783.05 1566.06 3801.74 1595.85 3798.12C1638.14 3792.97 1652.34 3749.3 1717.43 3660.75C1802.54 3544.98 1838.79 3522.31 1830.84 3460.61C1829.22 3448.04 1827.64 3399.76 1794.38 3370.7C1750.02 3331.94 1696.85 3367.2 1627.41 3338.07C1549.82 3305.57 1520.82 3236.09 1494.65 3250.47C1476.48 3260.45 1483.44 3300.66 1469.48 3379.09C1459.59 3434.84 1453.48 3467.41 1433.72 3494.1C1408.78 3527.75 1380.93 3527.47 1381.86 3550.26Z" stroke="#2E2D2B" stroke-width="2" stroke-miterlimit="10"/>
<path d="M1304.04 3525.86C1300.68 3555.93 1343.36 3571.05 1376.46 3617.27C1444.61 3712.41 1385.85 3786.79 1445.59 3860.6C1471.16 3892.18 1515.01 3920.43 1558.81 3917.48C1619.51 3913.4 1641.94 3853.89 1741.52 3725.05C1872.45 3556.69 1928.84 3527.05 1925.14 3437.33C1924.41 3419.84 1924.75 3348.52 1877.3 3305.66C1814.95 3249.37 1739.42 3303.59 1639.31 3259.26C1530.47 3211.07 1495.58 3102.06 1463.32 3117.55C1441.18 3128.26 1455.36 3183.13 1438.31 3295.57C1426.54 3373.23 1419.45 3416.03 1389.81 3451.44C1351.61 3497.08 1307.64 3493.47 1304.04 3525.86Z" stroke="#2E2D2B" stroke-width="2" stroke-miterlimit="10"/>
<path d="M1226.05 3501.53C1218.5 3540.65 1270.77 3560.79 1309.9 3622.88C1390.36 3751.05 1298.52 3855.06 1373.62 3957.48C1405.73 4001.3 1463.82 4039.14 1521.59 4036.92C1600.75 4033.87 1631.05 3958.32 1765.39 3789.4C1941.73 3568.17 2018.47 3531.63 2019.15 3414.11C2019.29 3391.7 2021.51 3297.4 1959.92 3240.69C1879.5 3166.93 1781.76 3240.08 1650.93 3180.51C1510.81 3116.7 1470.04 2968.06 1431.81 2984.69C1405.69 2996.1 1427.1 3065.67 1406.97 3212.11C1393.28 3311.69 1385.25 3364.66 1345.73 3408.85C1294.24 3466.41 1234.16 3459.46 1226.05 3501.53Z" stroke="#2E2D2B" stroke-width="2" stroke-miterlimit="10"/>
<path d="M1147.9 3477.21C1160.54 3425.43 1236.7 3435.74 1301.48 3366.26C1350.88 3313.28 1359.86 3250.17 1375.46 3128.67C1398.63 2948.23 1370.02 2863.94 1400.12 2851.85C1444.37 2834.06 1491.01 3022.34 1662.43 3101.77C1823.91 3176.59 1944.08 3084.35 2042.44 3175.74C2118.26 3246.2 2114.04 3363.47 2113.06 3390.91C2107.83 3536.2 2010.86 3579.67 1789.1 3853.77C1620 4062.77 1581.86 4154.34 1484.19 4156.37C1412.45 4157.86 1340.09 4110.42 1301.48 4054.38C1211.05 3923.26 1336.15 3789.54 1243.19 3628.51C1198.14 3550.47 1136.15 3525.38 1147.9 3477.21Z" stroke="#2E2D2B" stroke-width="2" stroke-miterlimit="10"/>
<path d="M1794.2 2643.84C1780.93 2650.57 1753.06 2637.61 1750.59 2617.43C1747.8 2594.53 1779.33 2575.59 1793.19 2581.48C1809.58 2588.45 1811.81 2634.94 1794.2 2643.84Z" stroke="#2E2D2B" stroke-width="2" stroke-miterlimit="10"/>
<path d="M1831.59 2522.19C1854.21 2543.34 1864.1 2582.15 1875.41 2648.67C1886.62 2714.64 1884.86 2761.87 1875.01 2765.3C1869.64 2767.14 1854.43 2752.68 1841.38 2742.07C1816.95 2722.28 1775.14 2724.48 1764.42 2722.34C1725.19 2714.49 1713.67 2699.92 1697.27 2672.02C1689.68 2659.13 1671.98 2630.55 1664.19 2596.93C1652.31 2546.02 1599.05 2530.33 1605.54 2509.92C1611 2492.88 1663.76 2488.75 1697.97 2488.26C1747.01 2487.57 1796.62 2489.53 1831.59 2522.19Z" stroke="#2E2D2B" stroke-width="2" stroke-miterlimit="10"/>
<path d="M1870.8 2465.34C1907.99 2503.13 1922.62 2566.55 1945.15 2685.15C1968.04 2804.33 1967.89 2886.08 1956.61 2889.12C1948.15 2891.45 1920.74 2861.99 1897.45 2840.93C1853.54 2801.07 1774.94 2807.63 1758.74 2805.07C1684.87 2793.66 1666.67 2766.33 1638.04 2714.66C1626.11 2693.14 1593.39 2640.69 1578.48 2578.75C1555.53 2483.86 1446.74 2459.01 1455.74 2423.83C1463.27 2394.54 1564.15 2390.05 1627.63 2392.45C1717.27 2395.94 1807.97 2401.45 1870.8 2465.34Z" stroke="#2E2D2B" stroke-width="2" stroke-miterlimit="10"/>
<path d="M1909.8 2408.85C1961.58 2463.27 1980.78 2551.35 2014.66 2722C2049.06 2894.42 2050.66 3010.5 2038 3013.39C2026.39 3016.08 1986.81 2971.7 1953.34 2940.13C1890.06 2880.09 1774.57 2891.13 1752.88 2888.24C1644.39 2873.76 1619.41 2833.27 1578.62 2757.73C1562.35 2727.59 1514.63 2651.26 1492.58 2561.03C1458.6 2422.15 1294.27 2388.17 1305.76 2338.21C1315.35 2296.66 1464.39 2291.62 1557.11 2297.13C1687.32 2304.47 1819.26 2313.68 1909.8 2408.85Z" stroke="#2E2D2B" stroke-width="2" stroke-miterlimit="10"/>
<path d="M1948.68 2352.4C2015.08 2423.45 2038.84 2536.2 2084.06 2758.9C2130.02 2984.54 2133.38 3134.91 2119.28 3137.7C2104.53 3140.65 2052.75 3081.53 2009.12 3039.42C1926.35 2959.35 1774.1 2974.76 1746.92 2971.45C1603.81 2954.09 1571.85 2900.34 1519.1 2800.86C1498.41 2762.12 1435.76 2661.89 1406.59 2543.36C1361.55 2360.5 1141.67 2317.38 1155.68 2252.63C1167.33 2198.84 1364.51 2193.47 1486.49 2201.83C1657.23 2213.34 1830.47 2225.9 1948.68 2352.4Z" stroke="#2E2D2B" stroke-width="2" stroke-miterlimit="10"/>
<path d="M1740.9 3054.7C1563.19 3034.53 1524.55 2967.28 1459.53 2844C1434.54 2796.61 1356.83 2672.53 1320.53 2525.72C1264.49 2298.86 989.03 2246.6 1005.54 2167.09C1019.26 2100.97 1264.57 2095.36 1415.82 2106.57C1627.14 2122.26 1841.66 2138.15 1987.51 2295.97C2068.54 2383.67 2096.84 2521.05 2153.41 2795.81C2210.84 3074.69 2215.96 3259.32 2200.49 3262.03C2182.56 3265.17 2118.66 3191.43 2064.85 3138.75C1962.58 3038.65 1773.58 3058.41 1740.9 3054.7Z" stroke="#2E2D2B" stroke-width="2" stroke-miterlimit="10"/>
<path d="M295.971 3593.76C316.148 3516.43 460.977 3552.76 633.381 3378.59C695.158 3316.17 736.578 3250.89 818.341 3240.74C826.591 3239.72 908.5 3230.76 966.308 3283.33C1039.04 3349.45 994.646 3441.18 1079.53 3569.11C1110.79 3616.23 1115.99 3602.55 1138.94 3639.71C1236.86 3798.35 1087.51 3959.4 1173.69 4120.5C1213.36 4194.66 1272.33 4211.68 1266.73 4221.37C1242.54 4262.91 241.447 3802.14 295.971 3593.76Z" stroke="#2E2D2B" stroke-width="2" stroke-miterlimit="10"/>
<path d="M840.76 3346.46C845.715 3347.13 899.723 3343.09 936.771 3380.26C983.616 3427.18 950.222 3491.79 1003.89 3579.02C1023.65 3611.14 1026.39 3602.43 1040.45 3627.83C1100.42 3736.25 992.786 3845.32 1045.49 3951.45C1069.89 4000.59 1108.39 4011.85 1102.66 4016.65C1076.76 4038.52 415.981 3715.34 467.882 3574.71C487.342 3521.97 593.576 3540.69 715.133 3427.09C759.333 3385.81 789.263 3339.47 840.76 3346.46Z" stroke="#2E2D2B" stroke-width="2" stroke-miterlimit="10"/>
<path d="M863.179 3452.18C864.592 3455.74 891.002 3455.66 907.233 3477.19C928.308 3505.12 905.866 3542.32 928.263 3588.91C936.479 3606.01 936.816 3602.36 941.972 3615.95C964.111 3674.42 897.974 3731.18 917.311 3782.41C926.357 3806.53 943.171 3810.65 938.688 3811.93C905.911 3807.28 591.188 3628.23 639.737 3555.66C658.693 3527.31 726.545 3528.66 796.829 3475.6C823.542 3455.42 841.029 3440.65 863.179 3452.18Z" stroke="#2E2D2B" stroke-width="2" stroke-miterlimit="10"/>
<path d="M885.599 3557.9C868.201 3608.73 799.71 3626.01 774.623 3607.21C737.631 3579.46 769.186 3543.33 811.615 3536.61C843.327 3531.62 905.507 3499.74 885.599 3557.9Z" stroke="#2E2D2B" stroke-width="2" stroke-miterlimit="10"/>
</g>
</svg>
