<svg width="24" height="25" viewBox="0 0 24 25" fill="none" xmlns="http://www.w3.org/2000/svg">
<rect y="0.5" width="24" height="24" rx="12" fill="#1F8B48"/>
<path fill-rule="evenodd" clip-rule="evenodd" d="M12 11.6662C11.3109 11.6662 10.75 11.1054 10.75 10.4162C10.75 9.72704 11.3109 9.16621 12 9.16621C12.6892 9.16621 13.25 9.72704 13.25 10.4162C13.25 11.1054 12.6892 11.6662 12 11.6662M12 7.49954C10.3917 7.49954 9.08337 8.80788 9.08337 10.4162C9.08337 12.0245 10.3917 13.3329 12 13.3329C13.6084 13.3329 14.9167 12.0245 14.9167 10.4162C14.9167 8.80788 13.6084 7.49954 12 7.49954M12 18.8716C10.6042 17.5516 7.00004 13.8458 7.00004 10.7683C7.00004 8.04746 9.24254 5.83329 12 5.83329C14.7575 5.83329 17 8.04746 17 10.7683C17 13.8458 13.3959 17.5516 12 18.8716M12 4.16663C8.32421 4.16663 5.33337 7.12746 5.33337 10.7683C5.33337 15.3308 11.2075 20.4175 11.4575 20.6316C11.6142 20.7658 11.8067 20.8333 12 20.8333C12.1934 20.8333 12.3859 20.7658 12.5425 20.6316C12.7925 20.4175 18.6667 15.3308 18.6667 10.7683C18.6667 7.12746 15.6759 4.16663 12 4.16663" fill="white"/>
</svg>
