<svg width="24" height="25" viewBox="0 0 24 25" fill="none" xmlns="http://www.w3.org/2000/svg">
<rect y="0.5" width="24" height="24" rx="12" fill="#1F8B48"/>
<path fill-rule="evenodd" clip-rule="evenodd" d="M17.8333 17.5H6.16663C5.70746 17.5 5.33329 17.1266 5.33329 16.6666V8.54165L11.5 13.1666C11.6483 13.2783 11.8241 13.3333 12 13.3333C12.1758 13.3333 12.3516 13.2783 12.5 13.1666L18.6666 8.54165V16.6666C18.6666 17.1266 18.2925 17.5 17.8333 17.5V17.5ZM17.2775 7.49998L12 11.4583L6.72246 7.49998H17.2775ZM17.8333 5.83331H6.16663C4.78829 5.83331 3.66663 6.95498 3.66663 8.33331V16.6666C3.66663 18.045 4.78829 19.1666 6.16663 19.1666H17.8333C19.2116 19.1666 20.3333 18.045 20.3333 16.6666V8.33331C20.3333 6.95498 19.2116 5.83331 17.8333 5.83331V5.83331Z" fill="white"/>
</svg>
